<svg width="169" height="156" xmlns="http://www.w3.org/2000/svg">
 <style type="text/css">.c0{fill:#94A4A5;} .c1{fill:#CCD9D7;} .c2{fill:#AEC0BD;} .c3{fill:#EDEEEF;} .c4{fill:#808787;} .c5{fill:#616B6C;} .c6{fill:#CDD6D6;} .c7{fill:#495153;} .c8{fill:#5B6767;} .c9{fill:#324040;} .c10{fill:#495E5E;} .c11{fill:#A9562B;} .c12{fill:#804529;} .c13{fill:#64696B;} .c14{fill:#FFFFFF;} .c15{fill:#AEC6C2;}</style>

 <g>
  <title>background</title>
  <rect fill="none" id="canvas_background" height="158" width="171" y="-1" x="-1"/>
 </g>
 <g>
  <title>Layer 1</title>
  <g id="svg_122" class="coffee">
   <circle id="svg_123" r="53.116" cy="75.852" cx="75.943" class="c11"/>
   <path id="svg_124" d="m75.943,22.737c-15.39,0 -29.266,6.586 -38.976,17.08c6.914,-3.301 14.647,-5.154 22.806,-5.154c29.288,0 53.116,23.828 53.116,53.116c0,13.898 -5.372,26.56 -14.14,36.036c17.906,-8.549 30.31,-26.832 30.31,-47.961c0,-29.29 -23.828,-53.117 -53.116,-53.117z" class="c12"/>
   <path id="svg_125" d="m75.943,0.005c-41.89,0 -75.848,33.958 -75.848,75.848c0,41.89 33.958,75.848 75.848,75.848c20.066,0 38.298,-7.806 51.863,-20.529l20.576,18.065c1.882,1.652 4.214,2.464 6.536,2.464c2.754,0 5.494,-1.141 7.454,-3.373l2.521,-2.872c3.612,-4.114 3.205,-10.378 -0.909,-13.99l-21.622,-18.983c6.002,-10.86 9.428,-23.343 9.428,-36.629c0.001,-41.891 -33.957,-75.849 -75.847,-75.849l0,0zm0,128.963c-29.288,0 -53.116,-23.828 -53.116,-53.116s23.828,-53.116 53.116,-53.116c29.288,0 53.116,23.828 53.116,53.116s-23.828,53.116 -53.116,53.116l0,0z" class="c3"/>
  </g>
 </g>
</svg>