<svg width="879" height="529" xmlns="http://www.w3.org/2000/svg">
 <style type="text/css">.c0{fill:#94A4A5;} .c1{fill:#CCD9D7;} .c2{fill:#AEC0BD;} .c3{fill:#EDEEEF;} .c4{fill:#808787;} .c5{fill:#616B6C;} .c6{fill:#CDD6D6;} .c7{fill:#495153;} .c8{fill:#5B6767;} .c9{fill:#324040;} .c10{fill:#495E5E;} .c11{fill:#A9562B;} .c12{fill:#804529;} .c13{fill:#64696B;} .c14{fill:#FFFFFF;} .c15{fill:#AEC6C2;}</style>

 <g>
  <title>background</title>
  <rect fill="none" id="canvas_background" height="531" width="881" y="-1" x="-1"/>
 </g>
 <g>
  <title>Layer 1</title>
  <g id="svg_1" class="laptop">
   <path id="svg_2" d="m822.32811,526.17l-758.884,0c-13.688,0 -24.784,-11.096 -24.784,-24.784l0,-431.512c0,-13.688 11.096,-24.784 24.784,-24.784l758.884,0c13.688,0 24.784,11.096 24.784,24.784l0,431.513c0,13.687 -11.096,24.783 -24.784,24.783z" class="c1"/>
   <path id="svg_3" d="m847.11211,77.937l-808.452,336.558l0,-344.621c0,-13.688 11.096,-24.784 24.784,-24.784l758.884,0c13.688,0 24.784,11.096 24.784,24.784l0,8.063z" class="c2"/>
   <path id="svg_4" d="m860.84911,45.09l-837.693,0c-12.175,0 -22.045,-9.87 -22.045,-22.045l0,0c0,-12.175 9.87,-22.045 22.045,-22.045l837.693,0c12.175,0 22.044,9.87 22.044,22.045l0,0c0,12.176 -9.869,22.045 -22.044,22.045z" class="c3"/>
   <g id="svg_5">
    <path id="svg_6" d="m704.56911,103.154c0,-2.726 2.23,-4.957 4.957,-4.957l31.133,0c2.726,0 4.957,2.231 4.957,4.957l0,15.777c0,2.726 -2.231,4.957 -4.957,4.957l-31.133,0c-2.726,0 -4.957,-2.231 -4.957,-4.957l0,-15.777z" class="c3"/>
   </g>
   <g id="svg_7">
    <path id="svg_8" d="m648.65311,103.154c0,-2.726 2.231,-4.957 4.957,-4.957l31.133,0c2.726,0 4.957,2.231 4.957,4.957l0,15.777c0,2.726 -2.23,4.957 -4.957,4.957l-31.133,0c-2.726,0 -4.957,-2.231 -4.957,-4.957l0,-15.777z" class="c3"/>
   </g>
   <g id="svg_9">
    <path id="svg_10" d="m592.73611,103.154c0,-2.726 2.231,-4.957 4.957,-4.957l31.133,0c2.726,0 4.957,2.231 4.957,4.957l0,15.777c0,2.726 -2.231,4.957 -4.957,4.957l-31.133,0c-2.726,0 -4.957,-2.231 -4.957,-4.957l0,-15.777z" class="c3"/>
   </g>
   <g id="svg_11">
    <path id="svg_12" d="m536.81911,103.154c0,-2.726 2.231,-4.957 4.957,-4.957l31.133,0c2.726,0 4.957,2.231 4.957,4.957l0,15.777c0,2.726 -2.231,4.957 -4.957,4.957l-31.133,0c-2.726,0 -4.957,-2.231 -4.957,-4.957l0,-15.777z" class="c3"/>
   </g>
   <g id="svg_13">
    <path id="svg_14" d="m480.90311,103.154c0,-2.726 2.231,-4.957 4.957,-4.957l31.133,0c2.726,0 4.957,2.231 4.957,4.957l0,15.777c0,2.726 -2.231,4.957 -4.957,4.957l-31.133,0c-2.726,0 -4.957,-2.231 -4.957,-4.957l0,-15.777z" class="c3"/>
   </g>
   <g id="svg_15">
    <path id="svg_16" d="m424.98611,103.154c0,-2.726 2.231,-4.957 4.957,-4.957l31.133,0c2.726,0 4.957,2.231 4.957,4.957l0,15.777c0,2.726 -2.231,4.957 -4.957,4.957l-31.133,0c-2.726,0 -4.957,-2.231 -4.957,-4.957l0,-15.777z" class="c3"/>
   </g>
   <g id="svg_17">
    <path id="svg_18" d="m369.06911,103.154c0,-2.726 2.231,-4.957 4.957,-4.957l31.133,0c2.726,0 4.957,2.231 4.957,4.957l0,15.777c0,2.726 -2.231,4.957 -4.957,4.957l-31.133,0c-2.726,0 -4.957,-2.231 -4.957,-4.957l0,-15.777z" class="c3"/>
   </g>
   <g id="svg_19">
    <path id="svg_20" d="m313.15311,103.154c0,-2.726 2.231,-4.957 4.957,-4.957l31.133,0c2.726,0 4.957,2.231 4.957,4.957l0,15.777c0,2.726 -2.231,4.957 -4.957,4.957l-31.133,0c-2.726,0 -4.957,-2.231 -4.957,-4.957l0,-15.777z" class="c3"/>
   </g>
   <g id="svg_21">
    <path id="svg_22" d="m257.23611,103.154c0,-2.726 2.231,-4.957 4.957,-4.957l31.133,0c2.726,0 4.957,2.231 4.957,4.957l0,15.777c0,2.726 -2.231,4.957 -4.957,4.957l-31.133,0c-2.726,0 -4.957,-2.231 -4.957,-4.957l0,-15.777z" class="c3"/>
   </g>
   <g id="svg_23">
    <path id="svg_24" d="m201.31911,103.154c0,-2.726 2.231,-4.957 4.957,-4.957l31.133,0c2.726,0 4.957,2.231 4.957,4.957l0,15.777c0,2.726 -2.231,4.957 -4.957,4.957l-31.133,0c-2.726,0 -4.957,-2.231 -4.957,-4.957l0,-15.777z" class="c3"/>
   </g>
   <g id="svg_25">
    <path id="svg_26" d="m145.40311,103.154c0,-2.726 2.231,-4.957 4.957,-4.957l31.133,0c2.726,0 4.957,2.231 4.957,4.957l0,15.777c0,2.726 -2.231,4.957 -4.957,4.957l-31.133,0c-2.726,0 -4.957,-2.231 -4.957,-4.957l0,-15.777z" class="c3"/>
   </g>
   <g id="svg_27">
    <path id="svg_28" d="m728.57311,136.218c-2.726,0 -7.187,0 -9.914,0l-9.134,0c-2.726,0 -7.187,0 -9.913,0l-46.003,0c-2.726,0 -4.957,2.231 -4.957,4.957l0,23.439c0,2.726 2.231,4.957 4.957,4.957l46.003,0c2.726,0 7.187,0 9.913,0l9.134,0c2.726,0 7.187,0 9.914,0l12.086,0c2.726,0 4.957,-2.231 4.957,-4.957l0,-23.439c0,-2.726 -2.231,-4.957 -4.957,-4.957l-12.086,0z" class="c3"/>
   </g>
   <g id="svg_29">
    <path id="svg_30" d="m592.73611,141.175c0,-2.726 2.231,-4.957 4.957,-4.957l31.133,0c2.726,0 4.957,2.231 4.957,4.957l0,23.439c0,2.726 -2.231,4.957 -4.957,4.957l-31.133,0c-2.726,0 -4.957,-2.231 -4.957,-4.957l0,-23.439z" class="c3"/>
   </g>
   <g id="svg_31">
    <path id="svg_32" d="m536.81911,141.175c0,-2.726 2.231,-4.957 4.957,-4.957l31.133,0c2.726,0 4.957,2.231 4.957,4.957l0,23.439c0,2.726 -2.231,4.957 -4.957,4.957l-31.133,0c-2.726,0 -4.957,-2.231 -4.957,-4.957l0,-23.439z" class="c3"/>
   </g>
   <g id="svg_33">
    <path id="svg_34" d="m480.90311,141.175c0,-2.726 2.231,-4.957 4.957,-4.957l31.133,0c2.726,0 4.957,2.231 4.957,4.957l0,23.439c0,2.726 -2.231,4.957 -4.957,4.957l-31.133,0c-2.726,0 -4.957,-2.231 -4.957,-4.957l0,-23.439z" class="c3"/>
   </g>
   <g id="svg_35">
    <path id="svg_36" d="m424.98611,141.175c0,-2.726 2.231,-4.957 4.957,-4.957l31.133,0c2.726,0 4.957,2.231 4.957,4.957l0,23.439c0,2.726 -2.231,4.957 -4.957,4.957l-31.133,0c-2.726,0 -4.957,-2.231 -4.957,-4.957l0,-23.439z" class="c3"/>
   </g>
   <g id="svg_37">
    <path id="svg_38" d="m369.06911,141.175c0,-2.726 2.231,-4.957 4.957,-4.957l31.133,0c2.726,0 4.957,2.231 4.957,4.957l0,23.439c0,2.726 -2.231,4.957 -4.957,4.957l-31.133,0c-2.726,0 -4.957,-2.231 -4.957,-4.957l0,-23.439z" class="c3"/>
   </g>
   <g id="svg_39">
    <path id="svg_40" d="m313.15311,141.175c0,-2.726 2.231,-4.957 4.957,-4.957l31.133,0c2.726,0 4.957,2.231 4.957,4.957l0,23.439c0,2.726 -2.231,4.957 -4.957,4.957l-31.133,0c-2.726,0 -4.957,-2.231 -4.957,-4.957l0,-23.439z" class="c3"/>
   </g>
   <g id="svg_41">
    <path id="svg_42" d="m257.23611,141.175c0,-2.726 2.231,-4.957 4.957,-4.957l31.133,0c2.726,0 4.957,2.231 4.957,4.957l0,23.439c0,2.726 -2.231,4.957 -4.957,4.957l-31.133,0c-2.726,0 -4.957,-2.231 -4.957,-4.957l0,-23.439z" class="c3"/>
   </g>
   <g id="svg_43">
    <path id="svg_44" d="m201.31911,141.175c0,-2.726 2.231,-4.957 4.957,-4.957l31.133,0c2.726,0 4.957,2.231 4.957,4.957l0,23.439c0,2.726 -2.231,4.957 -4.957,4.957l-31.133,0c-2.726,0 -4.957,-2.231 -4.957,-4.957l0,-23.439z" class="c3"/>
   </g>
   <g id="svg_45">
    <path id="svg_46" d="m145.40311,141.175c0,-2.726 2.231,-4.957 4.957,-4.957l31.133,0c2.726,0 4.957,2.231 4.957,4.957l0,23.439c0,2.726 -2.231,4.957 -4.957,4.957l-31.133,0c-2.726,0 -4.957,-2.231 -4.957,-4.957l0,-23.439z" class="c3"/>
   </g>
   <g id="svg_47">
    <path id="svg_48" d="m719.13711,180.883c-2.726,0 -7.119,0 -9.762,0c-2.643,0 -7.036,0 -9.762,0l-14.728,0c-2.726,0 -4.957,2.231 -4.957,4.957l0,23.439c0,2.726 2.23,4.957 4.957,4.957l14.728,0c2.726,0 7.119,0 9.762,0c2.643,0 7.036,0 9.762,0l21.522,0c2.726,0 4.957,-2.231 4.957,-4.957l0,-23.439c0,-2.726 -2.231,-4.957 -4.957,-4.957l-21.522,0z" class="c3"/>
   </g>
   <g id="svg_49">
    <path id="svg_50" d="m617.21711,185.84c0,-2.726 2.23,-4.957 4.957,-4.957l31.133,0c2.726,0 4.957,2.231 4.957,4.957l0,23.439c0,2.726 -2.231,4.957 -4.957,4.957l-31.133,0c-2.726,0 -4.957,-2.231 -4.957,-4.957l0,-23.439z" class="c3"/>
   </g>
   <g id="svg_51">
    <path id="svg_52" d="m561.30011,185.84c0,-2.726 2.231,-4.957 4.957,-4.957l31.133,0c2.726,0 4.957,2.231 4.957,4.957l0,23.439c0,2.726 -2.23,4.957 -4.957,4.957l-31.133,0c-2.726,0 -4.957,-2.231 -4.957,-4.957l0,-23.439z" class="c3"/>
   </g>
   <g id="svg_53">
    <path id="svg_54" d="m505.38411,185.84c0,-2.726 2.231,-4.957 4.957,-4.957l31.133,0c2.726,0 4.957,2.231 4.957,4.957l0,23.439c0,2.726 -2.231,4.957 -4.957,4.957l-31.133,0c-2.726,0 -4.957,-2.231 -4.957,-4.957l0,-23.439z" class="c3"/>
   </g>
   <g id="svg_55">
    <path id="svg_56" d="m449.46711,185.84c0,-2.726 2.231,-4.957 4.957,-4.957l31.133,0c2.726,0 4.957,2.231 4.957,4.957l0,23.439c0,2.726 -2.231,4.957 -4.957,4.957l-31.133,0c-2.726,0 -4.957,-2.231 -4.957,-4.957l0,-23.439z" class="c3"/>
   </g>
   <g id="svg_57">
    <path id="svg_58" d="m393.55111,185.84c0,-2.726 2.231,-4.957 4.957,-4.957l31.133,0c2.726,0 4.957,2.231 4.957,4.957l0,23.439c0,2.726 -2.231,4.957 -4.957,4.957l-31.133,0c-2.726,0 -4.957,-2.231 -4.957,-4.957l0,-23.439z" class="c3"/>
   </g>
   <g id="svg_59">
    <path id="svg_60" d="m337.63411,185.84c0,-2.726 2.231,-4.957 4.957,-4.957l31.133,0c2.726,0 4.957,2.231 4.957,4.957l0,23.439c0,2.726 -2.231,4.957 -4.957,4.957l-31.133,0c-2.726,0 -4.957,-2.231 -4.957,-4.957l0,-23.439z" class="c3"/>
   </g>
   <g id="svg_61">
    <path id="svg_62" d="m281.71711,185.84c0,-2.726 2.231,-4.957 4.957,-4.957l31.133,0c2.726,0 4.957,2.231 4.957,4.957l0,23.439c0,2.726 -2.231,4.957 -4.957,4.957l-31.133,0c-2.726,0 -4.957,-2.231 -4.957,-4.957l0,-23.439z" class="c3"/>
   </g>
   <g id="svg_63">
    <path id="svg_64" d="m225.80111,185.84c0,-2.726 2.231,-4.957 4.957,-4.957l31.133,0c2.726,0 4.957,2.231 4.957,4.957l0,23.439c0,2.726 -2.231,4.957 -4.957,4.957l-31.133,0c-2.726,0 -4.957,-2.231 -4.957,-4.957l0,-23.439z" class="c3"/>
   </g>
   <g id="svg_65">
    <path id="svg_66" d="m145.40311,185.84c0,-2.726 2.231,-4.957 4.957,-4.957l47.548,0c2.726,0 4.957,2.231 4.957,4.957l0,23.439c0,2.726 -2.231,4.957 -4.957,4.957l-47.548,0c-2.726,0 -4.957,-2.231 -4.957,-4.957l0,-23.439z" class="c3"/>
   </g>
   <g id="svg_67">
    <path id="svg_68" d="m728.18311,226.772c-2.726,0 -7.187,0 -9.913,0l-8.744,0c-2.726,0 -7.187,0 -9.913,0l-46.003,0c-2.726,0 -4.957,2.231 -4.957,4.957l0,23.439c0,2.726 2.231,4.957 4.957,4.957l46.003,0c2.726,0 7.187,0 9.913,0l8.744,0c2.726,0 7.187,0 9.913,0l12.476,0c2.726,0 4.957,-2.231 4.957,-4.957l0,-23.439c0,-2.726 -2.231,-4.957 -4.957,-4.957l-12.476,0z" class="c3"/>
   </g>
   <g id="svg_69">
    <path id="svg_70" d="m592.73611,231.729c0,-2.726 2.231,-4.957 4.957,-4.957l31.133,0c2.726,0 4.957,2.231 4.957,4.957l0,23.439c0,2.726 -2.231,4.957 -4.957,4.957l-31.133,0c-2.726,0 -4.957,-2.231 -4.957,-4.957l0,-23.439z" class="c3"/>
   </g>
   <g id="svg_71">
    <path id="svg_72" d="m536.81911,231.729c0,-2.726 2.231,-4.957 4.957,-4.957l31.133,0c2.726,0 4.957,2.231 4.957,4.957l0,23.439c0,2.726 -2.231,4.957 -4.957,4.957l-31.133,0c-2.726,0 -4.957,-2.231 -4.957,-4.957l0,-23.439z" class="c3"/>
   </g>
   <g id="svg_73">
    <path id="svg_74" d="m480.90311,231.729c0,-2.726 2.231,-4.957 4.957,-4.957l31.133,0c2.726,0 4.957,2.231 4.957,4.957l0,23.439c0,2.726 -2.231,4.957 -4.957,4.957l-31.133,0c-2.726,0 -4.957,-2.231 -4.957,-4.957l0,-23.439z" class="c3"/>
   </g>
   <g id="svg_75">
    <path id="svg_76" d="m424.98611,231.729c0,-2.726 2.231,-4.957 4.957,-4.957l31.133,0c2.726,0 4.957,2.231 4.957,4.957l0,23.439c0,2.726 -2.231,4.957 -4.957,4.957l-31.133,0c-2.726,0 -4.957,-2.231 -4.957,-4.957l0,-23.439z" class="c3"/>
   </g>
   <g id="svg_77">
    <path id="svg_78" d="m369.06911,231.729c0,-2.726 2.231,-4.957 4.957,-4.957l31.133,0c2.726,0 4.957,2.231 4.957,4.957l0,23.439c0,2.726 -2.231,4.957 -4.957,4.957l-31.133,0c-2.726,0 -4.957,-2.231 -4.957,-4.957l0,-23.439z" class="c3"/>
   </g>
   <g id="svg_79">
    <path id="svg_80" d="m313.15311,231.729c0,-2.726 2.231,-4.957 4.957,-4.957l31.133,0c2.726,0 4.957,2.231 4.957,4.957l0,23.439c0,2.726 -2.231,4.957 -4.957,4.957l-31.133,0c-2.726,0 -4.957,-2.231 -4.957,-4.957l0,-23.439z" class="c3"/>
   </g>
   <g id="svg_81">
    <path id="svg_82" d="m257.23611,231.729c0,-2.726 2.231,-4.957 4.957,-4.957l31.133,0c2.726,0 4.957,2.231 4.957,4.957l0,23.439c0,2.726 -2.231,4.957 -4.957,4.957l-31.133,0c-2.726,0 -4.957,-2.231 -4.957,-4.957l0,-23.439z" class="c3"/>
   </g>
   <g id="svg_83">
    <path id="svg_84" d="m221.08411,226.772c-2.726,0 -7.187,0 -9.914,0l-4.894,0c-2.726,0 -7.187,0 -9.914,0l-46.003,0c-2.726,0 -4.957,2.231 -4.957,4.957l0,23.439c0,2.726 2.231,4.957 4.957,4.957l46.003,0c2.726,0 7.187,0 9.914,0l4.894,0c2.726,0 7.187,0 9.914,0l16.325,0c2.726,0 4.957,-2.231 4.957,-4.957l0,-23.439c0,-2.726 -2.231,-4.957 -4.957,-4.957l-16.325,0z" class="c3"/>
   </g>
   <g id="svg_85">
    <path id="svg_86" d="m704.56911,276.219c0,-2.726 2.23,-4.957 4.957,-4.957l31.133,0c2.726,0 4.957,2.231 4.957,4.957l0,23.439c0,2.726 -2.231,4.957 -4.957,4.957l-31.133,0c-2.726,0 -4.957,-2.231 -4.957,-4.957l0,-23.439z" class="c3"/>
   </g>
   <g id="svg_87">
    <path id="svg_88" d="m648.65311,276.219c0,-2.726 2.231,-4.957 4.957,-4.957l31.133,0c2.726,0 4.957,2.231 4.957,4.957l0,23.439c0,2.726 -2.23,4.957 -4.957,4.957l-31.133,0c-2.726,0 -4.957,-2.231 -4.957,-4.957l0,-23.439z" class="c3"/>
   </g>
   <g id="svg_89">
    <path id="svg_90" d="m592.73611,276.219c0,-2.726 2.231,-4.957 4.957,-4.957l31.133,0c2.726,0 4.957,2.231 4.957,4.957l0,23.439c0,2.726 -2.231,4.957 -4.957,4.957l-31.133,0c-2.726,0 -4.957,-2.231 -4.957,-4.957l0,-23.439z" class="c3"/>
   </g>
   <g id="svg_91">
    <path id="svg_92" d="m558.11011,271.262c-2.726,0 -7.187,0 -9.913,0l-6.42,0c-2.726,0 -7.187,0 -9.914,0l-4.957,0c-2.726,0 -7.187,0 -9.914,0l-31.133,0c-2.726,0 -7.187,0 -9.914,0l-4.957,0c-2.726,0 -7.187,0 -9.914,0l-31.133,0c-2.726,0 -7.187,0 -9.914,0l-4.957,0c-2.726,0 -7.187,0 -9.914,0l-31.133,0c-2.726,0 -7.187,0 -9.914,0l-46.003,0c-2.726,0 -4.957,2.231 -4.957,4.957l0,23.439c0,2.726 2.231,4.957 4.957,4.957l46.003,0c2.726,0 7.187,0 9.914,0l31.133,0c2.726,0 7.187,0 9.914,0l4.957,0c2.726,0 7.187,0 9.914,0l31.133,0c2.726,0 7.187,0 9.914,0l4.957,0c2.726,0 7.187,0 9.914,0l31.133,0c2.726,0 7.187,0 9.914,0l4.957,0c2.726,0 7.187,0 9.914,0l6.42,0c2.726,0 7.187,0 9.913,0l14.799,0c2.726,0 4.957,-2.231 4.957,-4.957l0,-23.439c0,-2.726 -2.231,-4.957 -4.957,-4.957l-14.799,0z" class="c3"/>
   </g>
   <g id="svg_93">
    <path id="svg_94" d="m257.23611,276.219c0,-2.726 2.231,-4.957 4.957,-4.957l31.133,0c2.726,0 4.957,2.231 4.957,4.957l0,23.439c0,2.726 -2.231,4.957 -4.957,4.957l-31.133,0c-2.726,0 -4.957,-2.231 -4.957,-4.957l0,-23.439z" class="c3"/>
   </g>
   <g id="svg_95">
    <path id="svg_96" d="m201.31911,276.219c0,-2.726 2.231,-4.957 4.957,-4.957l31.133,0c2.726,0 4.957,2.231 4.957,4.957l0,23.439c0,2.726 -2.231,4.957 -4.957,4.957l-31.133,0c-2.726,0 -4.957,-2.231 -4.957,-4.957l0,-23.439z" class="c3"/>
   </g>
   <g id="svg_97">
    <path id="svg_98" d="m145.40311,276.219c0,-2.726 2.231,-4.957 4.957,-4.957l31.133,0c2.726,0 4.957,2.231 4.957,4.957l0,23.439c0,2.726 -2.231,4.957 -4.957,4.957l-31.133,0c-2.726,0 -4.957,-2.231 -4.957,-4.957l0,-23.439z" class="c3"/>
   </g>
   <g id="svg_99">
    <path id="svg_100" d="m570.31711,490.674c0,2.726 -2.231,4.957 -4.957,4.957l-241.686,0c-2.726,0 -4.957,-2.231 -4.957,-4.957l0,-152.358c0,-2.726 2.231,-4.957 4.957,-4.957l241.686,0c2.726,0 4.957,2.231 4.957,4.957l0,152.358z" class="c3"/>
   </g>
  </g>
 </g>
</svg>